<svg xmlns="http://www.w3.org/2000/svg" aria-hidden="true" style="width:0;height:0;position:absolute;overflow:hidden"><defs><symbol id="menu-icon" viewBox="0 0 47 32"><path stroke-linejoin="round" stroke-linecap="round" stroke-width="4.364" d="M1.96 29.154h42.965M1.96 15.615h42.965M1.96 2.077h42.965"/></symbol><symbol id="x-close" viewBox="0 0 32 32"><path d="M32 3.223 28.777 0 16 12.777 3.223 0 0 3.223 12.777 16 0 28.777 3.223 32 16 19.223 28.777 32 32 28.777 19.223 16 32 3.223z"/></symbol><symbol id="adress" viewBox="0 0 32 32"><path d="m32 19-6-6V4h-4v5l-6-6L0 19v1h4v10h10v-6h4v6h10V20h4z"/></symbol><symbol id="office" viewBox="0 0 32 32"><path d="M0 32h16V0H0v32zM10 4h4v4h-4V4zm0 8h4v4h-4v-4zm0 8h4v4h-4v-4zM2 4h4v4H2V4zm0 8h4v4H2v-4zm0 8h4v4H2v-4zm16-10h14v2H18zm0 22h4v-8h6v8h4V14H18z"/></symbol><symbol id="calendar" viewBox="0 0 32 32"><path d="M10 12h4v4h-4zm6 0h4v4h-4zm6 0h4v4h-4zM4 24h4v4H4zm6 0h4v4h-4zm6 0h4v4h-4zm-6-6h4v4h-4zm6 0h4v4h-4zm6 0h4v4h-4zM4 18h4v4H4zM26 0v2h-4V0H8v2H4V0H0v32h30V0h-4zm2 30H2V8h26v22z"/></symbol></defs></svg>