<svg xmlns="http://www.w3.org/2000/svg" aria-hidden="true" style="width:0;height:0;position:absolute;overflow:hidden"><defs><symbol id="menu-icon" viewBox="0 0 47 32"><path stroke-linejoin="round" stroke-linecap="round" stroke-width="4.364" d="M1.96 29.154h42.965M1.96 15.615h42.965M1.96 2.077h42.965"/></symbol><symbol id="x-close" viewBox="0 0 32 32"><path d="M32 3.223 28.777 0 16 12.777 3.223 0 0 3.223 12.777 16 0 28.777 3.223 32 16 19.223 28.777 32 32 28.777 19.223 16 32 3.223z"/></symbol><symbol id="adress" viewBox="0 0 32 32"><path d="m32 19-6-6V4h-4v5l-6-6L0 19v1h4v10h10v-6h4v6h10V20h4z"/></symbol><symbol id="office" viewBox="0 0 32 32"><path d="M0 32h16V0H0v32zM10 4h4v4h-4V4zm0 8h4v4h-4v-4zm0 8h4v4h-4v-4zM2 4h4v4H2V4zm0 8h4v4H2v-4zm0 8h4v4H2v-4zm16-10h14v2H18zm0 22h4v-8h6v8h4V14H18z"/></symbol><symbol id="calendar" viewBox="0 0 32 32"><path d="M10 12h4v4h-4zm6 0h4v4h-4zm6 0h4v4h-4zM4 24h4v4H4zm6 0h4v4h-4zm6 0h4v4h-4zm-6-6h4v4h-4zm6 0h4v4h-4zm6 0h4v4h-4zM4 18h4v4H4zM26 0v2h-4V0H8v2H4V0H0v32h30V0h-4zm2 30H2V8h26v22z"/></symbol><symbol id="site" viewBox="0 0 48 48"><path d="M0 24.5C0 37.48 10.52 48 23.5 48S47 37.48 47 24.5 36.48 1 23.5 1 0 11.52 0 24.5zm5 0c0-1.2.11-2.37.33-3.5h4.8c-.09.99-.13 1.99-.13 3s.04 2.01.13 3H5.16c-.11-.82-.16-1.65-.16-2.5zM7.07 16c1.46-2.83 3.63-5.23 6.28-6.97A34.675 34.675 0 0 0 10.91 16H7.07zm13.78-9.81.15-.02V16h-4.92c.99-3.58 2.62-6.9 4.77-9.81zM26 6.17l.14.02c2.15 2.91 3.79 6.23 4.78 9.81H26V6.17zm7.64 2.86A18.51 18.51 0 0 1 39.93 16h-3.85a34.126 34.126 0 0 0-2.44-6.97zM41.67 21c.22 1.13.33 2.3.33 3.5 0 .85-.061 1.68-.17 2.5h-4.95a37.232 37.232 0 0 0 0-6h4.79zm-1.25 11a18.575 18.575 0 0 1-7.51 8.43c1.4-2.63 2.47-5.459 3.17-8.43h4.34zm-26.33 8.43c-3.3-1.95-5.94-4.9-7.51-8.43h4.34c.7 2.971 1.77 5.811 3.17 8.43zM15.15 21H21v6h-5.85a29.833 29.833 0 0 1 0-6zM26 21h5.85a29.833 29.833 0 0 1 0 6H26v-6zm-9.92 11H21v10a29.945 29.945 0 0 1-4.92-10zM26 32h4.92c-1.01 3.66-2.7 7.04-4.92 10V32z"/></symbol><symbol id="stats" viewBox="0 0 32 32"><path d="M5.998 5h-.987v23h20v-.963l-18.996-.049L5.998 5zm2.013 20h5V14.125l-5 5V25zm6 0h5v-9.875l-2 2-3-3V25zm6 0h5V9.813l-5 5V25zm-6.624-13.933 3.62 3.6 7.148-7.112 1.834 1.844L25.945 5l-4.415.023 1.717 1.722-6.242 6.26-3.689-3.703-5.623 5.604.939.912 4.755-4.751z"/></symbol><symbol id="building" viewBox="0 0 22 28"><path d="M21 0c.547 0 1 .453 1 1v26c0 .547-.453 1-1 1H1c-.547 0-1-.453-1-1V1c0-.547.453-1 1-1h20zM8 4.5v1c0 .281.219.5.5.5h1c.281 0 .5-.219.5-.5v-1c0-.281-.219-.5-.5-.5h-1c-.281 0-.5.219-.5.5zm0 4v1c0 .281.219.5.5.5h1c.281 0 .5-.219.5-.5v-1c0-.281-.219-.5-.5-.5h-1c-.281 0-.5.219-.5.5zm0 4v1c0 .281.219.5.5.5h1c.281 0 .5-.219.5-.5v-1c0-.281-.219-.5-.5-.5h-1c-.281 0-.5.219-.5.5zm0 4v1c0 .281.219.5.5.5h1c.281 0 .5-.219.5-.5v-1c0-.281-.219-.5-.5-.5h-1c-.281 0-.5.219-.5.5zm-2 5v-1c0-.281-.219-.5-.5-.5h-1c-.281 0-.5.219-.5.5v1c0 .281.219.5.5.5h1c.281 0 .5-.219.5-.5zm0-4v-1c0-.281-.219-.5-.5-.5h-1c-.281 0-.5.219-.5.5v1c0 .281.219.5.5.5h1c.281 0 .5-.219.5-.5zm0-4v-1c0-.281-.219-.5-.5-.5h-1c-.281 0-.5.219-.5.5v1c0 .281.219.5.5.5h1c.281 0 .5-.219.5-.5zm0-4v-1c0-.281-.219-.5-.5-.5h-1c-.281 0-.5.219-.5.5v1c0 .281.219.5.5.5h1c.281 0 .5-.219.5-.5zm0-4v-1c0-.281-.219-.5-.5-.5h-1c-.281 0-.5.219-.5.5v1c0 .281.219.5.5.5h1c.281 0 .5-.219.5-.5zm8 20v-3c0-.281-.219-.5-.5-.5h-5c-.281 0-.5.219-.5.5v3c0 .281.219.5.5.5h5c.281 0 .5-.219.5-.5zm0-8v-1c0-.281-.219-.5-.5-.5h-1c-.281 0-.5.219-.5.5v1c0 .281.219.5.5.5h1c.281 0 .5-.219.5-.5zm0-4v-1c0-.281-.219-.5-.5-.5h-1c-.281 0-.5.219-.5.5v1c0 .281.219.5.5.5h1c.281 0 .5-.219.5-.5zm0-4v-1c0-.281-.219-.5-.5-.5h-1c-.281 0-.5.219-.5.5v1c0 .281.219.5.5.5h1c.281 0 .5-.219.5-.5zm0-4v-1c0-.281-.219-.5-.5-.5h-1c-.281 0-.5.219-.5.5v1c0 .281.219.5.5.5h1c.281 0 .5-.219.5-.5zm4 16v-1c0-.281-.219-.5-.5-.5h-1c-.281 0-.5.219-.5.5v1c0 .281.219.5.5.5h1c.281 0 .5-.219.5-.5zm0-4v-1c0-.281-.219-.5-.5-.5h-1c-.281 0-.5.219-.5.5v1c0 .281.219.5.5.5h1c.281 0 .5-.219.5-.5zm0-4v-1c0-.281-.219-.5-.5-.5h-1c-.281 0-.5.219-.5.5v1c0 .281.219.5.5.5h1c.281 0 .5-.219.5-.5zm0-4v-1c0-.281-.219-.5-.5-.5h-1c-.281 0-.5.219-.5.5v1c0 .281.219.5.5.5h1c.281 0 .5-.219.5-.5zm0-4v-1c0-.281-.219-.5-.5-.5h-1c-.281 0-.5.219-.5.5v1c0 .281.219.5.5.5h1c.281 0 .5-.219.5-.5z"/></symbol></defs></svg>